<svg xmlns="http://www.w3.org/2000/svg" viewBox="0 0 297.35 35.8"><defs><style>.cls-1{fill:#230047;}.cls-2{fill:#390082;}.cls-3{fill:#5c00ed;}</style></defs><g id="Layer_2" data-name="Layer 2"><g id="city"><g id="platform"><rect class="cls-1" x="4.52" y="10.45" width="288.32" height="24.88"/><rect class="cls-2" y="7.62" width="297.35" height="2.87"/><rect class="cls-2" y="24.33" width="297.35" height="2.87"/><rect class="cls-2" x="4.52" width="2.26" height="7.62"/><rect class="cls-2" x="290.63" width="2.21" height="7.62"/><rect class="cls-2" x="268.62" width="2.21" height="7.62"/><rect class="cls-2" x="246.62" width="2.21" height="7.62"/><rect class="cls-2" x="224.61" width="2.21" height="7.62"/><rect class="cls-2" x="202.58" width="2.21" height="7.62"/><rect class="cls-2" x="180.57" width="2.21" height="7.62"/><rect class="cls-2" x="158.56" width="2.21" height="7.62"/><rect class="cls-2" x="136.56" width="2.21" height="7.62"/><rect class="cls-2" x="114.55" width="2.21" height="7.62"/><rect class="cls-2" x="104.04" width="2.21" height="7.62"/><rect class="cls-2" x="125.73" width="2.21" height="7.62"/><rect class="cls-2" x="92.54" width="2.21" height="7.62"/><rect class="cls-2" x="70.54" width="2.21" height="7.62"/><rect class="cls-2" x="48.53" width="2.21" height="7.62"/><rect class="cls-2" x="26.53" width="2.21" height="7.62"/><rect class="cls-2" x="4.52" width="288.32" height="1.33"/><rect class="cls-2" x="4.52" y="3.81" width="288.32" height="1.33"/><polygon class="cls-3" points="284.24 35.8 243.01 24.83 135.2 24.83 93.37 10.95 93.92 10.04 135.49 23.83 243.24 23.83 243.35 23.86 284.7 34.86 284.24 35.8"/></g></g></g></svg>